# xmcd
#
# Track frame offsets:
# 150
# 15197
# 32547
# 51132
# 66790
# 79750
# 95482
# 111060
# 126535
# 144010
# 158117
# 172120
#
# Disc length: 2499 seconds
#
#
# Revision: 3
# Processed by: cddbd v1.5.2PL0 Copyright (c) Steve Scherf et al.
# Submitted via: FreeRIP 2.90 
#
DISCID=9209c10c
DTITLE=Osvaldir e Carlos Magrao - Osvaldir e Carlos Magrao
DYEAR=1900
DGENRE=
TTITLE0=Outras fronteiras
TTITLE1=Querencia amada
TTITLE2=Prece
TTITLE3=Nos
TTITLE4=Xote do caminhoneiro
TTITLE5=Tropa de osso
TTITLE6=Eu sou do sul
TTITLE7=Xucros desejos
TTITLE8=Rio e canoa
TTITLE9=Herdeiro da pampa pobre
TTITLE10=Roda de chimarrao
TTITLE11=Cancao do radio
EXTD=
EXTT0=
EXTT1=
EXTT2=
EXTT3=
EXTT4=
EXTT5=
EXTT6=
EXTT7=
EXTT8=
EXTT9=
EXTT10=
EXTT11=
PLAYORDER=
